<svg width="201" height="64" viewBox="0 0 201 64" fill="none" xmlns="http://www.w3.org/2000/svg">
    <g clip-path="url(#clip0_126_11)">
        <path
            d="M102.719 34.2064H100.283H97.8271V9.40326H101.662H105.497L110.057 29.0665L114.566 9.40326H118.351H122.136V34.2064H119.7H117.244V13.3479L112.553 34.2064H109.976H107.4L102.719 12.8896V34.2064Z"
            fill="black" />
        <path
            d="M125.598 34.2064V9.40326H144.048V11.5947V13.8061H130.832V19.0755H143.092V21.1972V23.3388H130.832V29.8036H144.632V31.995V34.2064H125.598Z"
            fill="black" />
        <path
            d="M147.319 9.40326H149.926H158.039C161.482 9.40326 164.099 10.4093 165.89 12.4115C167.682 14.4137 168.578 17.3422 168.578 21.2072C168.578 25.4605 167.652 28.6879 165.79 30.8993C163.928 33.1107 161.21 34.2163 157.616 34.2163H149.926H147.319V9.40326ZM152.553 29.943H156.972C159.096 29.943 160.697 29.2358 161.753 27.8114C162.82 26.3869 163.344 24.2552 163.344 21.4064C163.344 18.8264 162.851 16.894 161.864 15.609C160.878 14.324 159.388 13.6766 157.395 13.6766H152.553V29.943Z"
            fill="black" />
        <path d="M170.541 9.40326H173.148H175.775V34.2064H173.168H170.541V9.40326Z" fill="black" />
        <path
            d="M186.012 9.40326H189.052H192.092L200.959 34.2064H198.181H195.403L193.712 29.1661H184.21L182.57 34.2064H179.872H177.154L186.012 9.40326ZM185.64 24.8928H192.293L188.961 14.9217H188.971L185.64 24.8928Z"
            fill="black" />
        <path
            d="M120.173 54.6366C119.851 57.5054 118.723 59.7865 116.771 61.4699C114.818 63.1533 112.342 64 109.332 64C105.809 64 103.011 62.8346 100.937 60.5037C98.8639 58.1728 97.8271 55.0251 97.8271 51.0506C97.8271 46.9964 98.8639 43.789 100.937 41.4083C103.011 39.0276 105.809 37.8422 109.332 37.8422C112.312 37.8422 114.778 38.6391 116.73 40.2329C118.683 41.8266 119.831 43.9782 120.173 46.7076H114.939C114.768 45.3728 114.184 44.3069 113.187 43.52C112.191 42.7331 110.922 42.3346 109.393 42.3346C107.45 42.3346 105.92 43.1016 104.813 44.6357C103.705 46.1697 103.152 48.3013 103.152 51.0207C103.152 53.6704 103.705 55.7522 104.803 57.2564C105.9 58.7605 107.43 59.5076 109.393 59.5076C110.933 59.5076 112.191 59.0693 113.187 58.1927C114.184 57.3161 114.768 56.1307 114.939 54.6366H120.173Z"
            fill="black" />
        <path
            d="M129.886 38.5195H132.926H135.966L144.833 63.3226H142.055H139.277L137.586 58.2823H128.084L126.444 63.3226H123.746H121.028L129.886 38.5195ZM129.514 54.009H136.167L132.835 44.038H132.845L129.514 54.009Z"
            fill="black" />
        <path
            d="M147.008 38.5195H149.615H159.64C162.026 38.5195 163.948 39.157 165.408 40.4221C166.867 41.6872 167.602 43.3507 167.602 45.4226C167.602 47.8033 166.787 49.5465 165.166 50.6521C164.733 50.941 164.24 51.19 163.697 51.3893C163.999 51.5188 164.28 51.6482 164.532 51.7977C165.961 52.6444 166.706 54.0588 166.767 56.0511L166.887 60.1152C166.908 60.922 166.998 61.4998 167.139 61.8384C167.29 62.1771 167.572 62.4461 167.995 62.6453V63.3027H162.207C162.066 63.0437 161.955 62.4859 161.844 61.6392C161.744 60.7925 161.683 59.8761 161.673 58.8999L161.643 56.6089C161.623 55.4932 161.291 54.7063 160.647 54.2282C160.003 53.76 158.936 53.5209 157.456 53.5209H152.242V63.3226H149.635H147.008V38.5195ZM152.242 49.3572H158.311C159.66 49.3572 160.677 49.0882 161.351 48.5404C162.026 47.9925 162.368 47.1757 162.368 46.07C162.368 44.9743 162.046 44.1575 161.402 43.6196C160.757 43.0718 159.791 42.8028 158.513 42.8028H152.242V49.3572Z"
            fill="black" />
        <path d="M170.611 38.5195H173.218H175.845V63.3226H173.238H170.611V38.5195Z" fill="black" />
        <path
            d="M193.138 45.9605C193.047 44.7751 192.524 43.8487 191.568 43.1515C190.612 42.4641 189.373 42.1155 187.833 42.1155C186.505 42.1155 185.468 42.4044 184.713 42.9821C183.968 43.5599 183.586 44.3667 183.586 45.4027C183.586 46.1398 183.978 46.7175 184.763 47.1259C185.538 47.5244 187.179 48.0025 189.696 48.5603C193.339 49.3672 195.785 50.3035 197.013 51.3594C198.241 52.4053 198.855 54.0887 198.855 56.4097C198.855 58.7406 197.929 60.5834 196.077 61.948C194.225 63.3127 191.719 64 188.558 64C185.387 64 182.911 63.2729 181.12 61.8185C179.338 60.3642 178.382 58.3023 178.251 55.6227H183.294C183.354 56.9376 183.837 57.9536 184.743 58.6609C185.649 59.3681 186.917 59.7267 188.548 59.7267C190.219 59.7267 191.517 59.4578 192.464 58.9199C193.41 58.382 193.873 57.6448 193.873 56.6985C193.873 55.7622 193.531 55.0749 192.856 54.6366C192.192 54.1983 190.793 53.7401 188.629 53.2719C184.653 52.3953 181.995 51.4391 180.657 50.423C179.328 49.407 178.664 47.8332 178.664 45.6816C178.664 43.271 179.539 41.3684 181.301 39.9539C183.062 38.5395 185.448 37.8422 188.447 37.8422C191.256 37.8422 193.541 38.5694 195.302 40.0336C197.064 41.4979 198.04 43.4702 198.231 45.9605H193.138Z"
            fill="black" />
        <path
            d="M200.255 5.13993C200.748 5.61806 201 6.20576 201 6.90304C201 7.59036 200.748 8.17806 200.255 8.65619C199.762 9.13432 199.158 9.37339 198.443 9.37339C197.729 9.37339 197.125 9.13432 196.632 8.65619C196.138 8.17806 195.887 7.59036 195.887 6.90304C195.887 6.20576 196.138 5.61806 196.632 5.13993C197.125 4.6618 197.729 4.42273 198.443 4.42273C199.158 4.42273 199.762 4.6618 200.255 5.13993ZM199.893 5.43876C199.5 5.04032 199.017 4.8411 198.443 4.8411C197.87 4.8411 197.386 5.04032 196.994 5.43876C196.601 5.8372 196.4 6.3253 196.4 6.90304C196.4 7.48078 196.601 7.96888 196.994 8.35736C197.386 8.7558 197.87 8.95503 198.443 8.95503C199.017 8.95503 199.5 8.7558 199.893 8.35736C200.285 7.95892 200.487 7.47082 200.487 6.90304C200.487 6.3253 200.295 5.8372 199.893 5.43876ZM197.336 5.46864H197.568H198.494C198.806 5.46864 199.047 5.53837 199.228 5.67783C199.41 5.81728 199.49 6.00654 199.49 6.24561C199.49 6.51456 199.4 6.71378 199.218 6.8632C199.088 6.97277 198.916 7.0425 198.705 7.07238L199.541 8.32748H199.279H199.017L198.272 7.0923H197.789V8.32748H197.558H197.326V5.46864H197.336ZM197.799 6.71378H198.413C198.625 6.71378 198.786 6.67394 198.876 6.60421C198.977 6.52452 199.027 6.41495 199.027 6.24561C199.027 6.10615 198.977 5.99658 198.876 5.93682C198.776 5.86709 198.625 5.8372 198.413 5.8372H197.799V6.71378Z"
            fill="black" />
        <path d="M76.921 26.4567V9.42319H63.3828L76.921 26.4567Z" fill="black" />
        <path
            d="M23.2616 26.616V40.9002L0 63.4023V40.5117L17.0411 24.0261C19.3561 21.7849 23.2616 23.4085 23.2616 26.616Z"
            fill="black" />
        <path
            d="M70.1775 63.4023C73.9021 63.4023 76.9215 60.4143 76.9215 56.7284C76.9215 53.0425 73.9021 50.0545 70.1775 50.0545C66.453 50.0545 63.4336 53.0425 63.4336 56.7284C63.4336 60.4143 66.453 63.4023 70.1775 63.4023Z"
            fill="black" />
        <path
            d="M51.6668 12.8L23.2617 40.9002V63.4023L41.6113 45.2433C44.8323 55.3438 53.0962 62.1074 59.7797 63.4023V9.42319C56.7298 9.45307 53.8209 10.6683 51.6668 12.8Z"
            fill="black" />
        <path d="M86.443 0H76.9209V9.42319H86.443V0Z" fill="black" />
    </g>
    <defs>
        <clipPath id="clip0_126_11">
            <rect width="201" height="64" fill="black" />
        </clipPath>
    </defs>
</svg>