<?xml version="1.0" encoding="utf-8"?>
<!-- Generator: Adobe Illustrator 25.2.3, SVG Export Plug-In . SVG Version: 6.00 Build 0)  -->
<svg version="1.1" id="Calque_1" xmlns="http://www.w3.org/2000/svg" xmlns:xlink="http://www.w3.org/1999/xlink" x="0px" y="0px"
	 viewBox="0 0 841.89 595.28" style="enable-background:new 0 0 841.89 595.28;" xml:space="preserve">
<style type="text/css">
	.st0{fill:#AFCA0B;}
	.st1{fill:#3C3C3B;}
</style>
<g>
	<g>
		<g>
			<path class="st0" d="M641.45,536.7l-7.36-13.79l-2.82-5.52l-35.27-68.25c-9.85-15.9-17.67-27-23.45-33.17
				c-5.85-6.24-13.2-11.96-22.07-17.14c17.93-2.63,31.4-8.93,40.4-18.92c9-9.98,13.53-22.66,13.53-37.97
				c0-12.09-3.02-22.79-8.93-32.19c-5.98-9.39-13.86-15.9-23.78-19.58c-9.92-3.68-25.75-5.52-47.56-5.52h-86.97v34.55h73.57
				c16.75,0,26.74,0.26,30.09,0.72c6.7,1.12,11.89,3.74,15.57,8.01c3.68,4.2,5.52,9.79,5.52,16.62c0,6.17-1.44,11.3-4.2,15.37
				c-2.82,4.07-6.63,6.96-11.56,8.61c-4.93,1.71-17.28,2.5-37.11,2.5h-63.78l3.94,8.54c6.83,14.71,21.55,24.11,37.71,24.11
				c9.46,0,16.42,0.79,20.76,2.3c4.4,1.51,8.54,4.34,12.41,8.47c3.88,4.14,11.17,14.19,21.74,30.09l39.15,72.85l2.96,5.52
				l20.03,35.93h49.33L641.45,536.7z"/>
		</g>
		<g>
			<path class="st1" d="M237.39,488.96l-48.78-204.31h42.23l30.8,140.34l37.35-140.34h49.06l35.81,142.71l31.36-142.71h41.53
				l-49.61,204.31h-43.76l-40.69-152.74l-40.56,152.74H237.39z"/>
		</g>
		<polygon class="st0" points="641.45,539.02 641.45,558.84 205.86,558.84 205.86,521.73 631.66,521.73 634.37,526.67 		"/>
		<polygon class="st1" points="609.25,238.68 553.48,238.68 398.9,90.2 370.99,63.29 398.97,36.44 426.88,63.29 		"/>
		<rect x="222.38" y="124.13" class="st1" width="40.33" height="82.26"/>
		<polygon class="st0" points="426.88,63.29 398.9,90.2 244.39,238.68 188.62,238.68 370.99,63.29 398.97,36.44 		"/>
	</g>
</g>
</svg>
